<svg width="120" height="80px" id="Layer_1" data-name="Layer 1" xmlns="http://www.w3.org/2000/svg" viewBox="0 0 763.16 468.41"><title>HeaderPersonalLogo</title><path d="M358.5,648.5s-57-360,181-360.5,180,360.5,180,360.5l-35,.5s54-325.5-145-325.5-143,325.5-143,325.5Z" transform="translate(-352.52 -281.4)"/><path d="M1109.62,648.62s-360,57-360.5-181,360.5-180,360.5-180l.5,35s-325.5-54-325.5,145,325.5,143,325.5,143Z" transform="translate(-352.52 -281.4)"/><path d="M375.4,709.21c0-5.1-1.91-7.4-5.31-7.4-4.3,0-8.1,4.6-9.9,9.4v37.4h-3v-48.3h3v7.2c2.2-4.6,6-8.4,10.3-8.4,5.51,0,7.91,3.2,7.91,10.1v39.4h-3Z" transform="translate(-352.52 -281.4)"/><path d="M416.59,724.41c0-13.2,3.2-25.3,12.9-25.3s12.91,12.1,12.91,25.3-3.11,25.4-12.91,25.4S416.59,737.61,416.59,724.41Zm22.5,0c0-10.7-1.8-22.6-9.6-22.6s-9.6,11.9-9.6,22.6,1.9,22.7,9.6,22.7S439.09,735.21,439.09,724.41Z" transform="translate(-352.52 -281.4)"/><path d="M480.59,700.31h3v8.5c2.5-5.7,5.6-9.4,11.5-9.4V703a8.08,8.08,0,0,0-1.5-.1c-4.8,0-8.2,4.8-10,9.6v36.1h-3Z" transform="translate(-352.52 -281.4)"/><path d="M566.69,709.21c0-5.1-1.9-7.4-5.3-7.4-4.2,0-8.1,4.6-9.9,9.4v37.4h-3v-39.4c0-5.1-1.9-7.4-5.3-7.4-4.3,0-8.1,4.6-9.9,9.4v37.4h-3v-48.3h3v7.2c2.2-4.6,6-8.4,10.3-8.4,5,0,7.8,3.2,7.8,8.4,2.2-4.6,6.1-8.4,10.4-8.4,5,0,7.9,2.8,7.9,10.1v39.4h-3Z" transform="translate(-352.52 -281.4)"/><path d="M627.89,743.31c-2.3,4.9-5.8,6.5-8.8,6.5-7.4,0-11.8-6.8-11.8-16.1s4.4-16.1,11.8-16.1c3,0,6.5,1.5,8.8,6.3v-10.1c0-7.8-1.7-12-7.7-12-3.3,0-6.1,1.3-9.3,5.4l-1.8-2.3c3.8-4.1,7.3-5.8,11.1-5.8,8.1,0,10.7,4.8,10.7,14.6v34.9h-3Zm0-15.5c-1.9-5.6-5.3-7.5-8.8-7.5-5.9,0-8.5,6.5-8.5,13.4s2.6,13.4,8.5,13.4c3.5,0,6.9-1.8,8.8-7.3Z" transform="translate(-352.52 -281.4)"/><path d="M727.69,699.11c4,0,6.1,1.8,8.4,4.5l-2.1,2.1c-2.1-2.8-4.1-3.9-6.4-3.9-7.9,0-10.2,11.5-10.2,22.6s2.3,22.7,10.2,22.7c2.3,0,4.3-1,6.4-3.9l2.1,2.1c-2.3,3.1-4.4,4.5-8.4,4.5-9.4,0-13.6-11.5-13.6-25.4S718.29,699.11,727.69,699.11Z" transform="translate(-352.52 -281.4)"/><path d="M790.49,743.31c-2.3,4.9-5.8,6.5-8.8,6.5-7.4,0-11.8-6.8-11.8-16.1s4.4-16.1,11.8-16.1c3,0,6.5,1.5,8.8,6.3v-10.1c0-7.8-1.7-12-7.7-12-3.3,0-6.1,1.3-9.3,5.4l-1.8-2.3c3.8-4.1,7.3-5.8,11.1-5.8,8.1,0,10.7,4.8,10.7,14.6v34.9h-3Zm0-15.5c-1.9-5.6-5.3-7.5-8.8-7.5-5.9,0-8.5,6.5-8.5,13.4s2.6,13.4,8.5,13.4c3.5,0,6.9-1.8,8.8-7.3Z" transform="translate(-352.52 -281.4)"/><path d="M869.89,709.21c0-5.1-1.9-7.4-5.3-7.4-4.2,0-8.1,4.6-9.9,9.4v37.4h-3v-39.4c0-5.1-1.9-7.4-5.3-7.4-4.3,0-8.1,4.6-9.9,9.4v37.4h-3v-48.3h3v7.2c2.2-4.6,6-8.4,10.3-8.4,5,0,7.8,3.2,7.8,8.4,2.2-4.6,6.1-8.4,10.4-8.4,5,0,7.9,2.8,7.9,10.1v39.4h-3Z" transform="translate(-352.52 -281.4)"/><path d="M931.09,743.31c-2.3,4.9-5.8,6.5-8.8,6.5-7.4,0-11.8-6.8-11.8-16.1s4.4-16.1,11.8-16.1c3,0,6.5,1.5,8.8,6.3v-10.1c0-7.8-1.7-12-7.7-12-3.3,0-6.1,1.3-9.3,5.4l-1.8-2.3c3.8-4.1,7.3-5.8,11.1-5.8,8.1,0,10.7,4.8,10.7,14.6v34.9h-3Zm0-15.5c-1.9-5.6-5.3-7.5-8.8-7.5-5.9,0-8.5,6.5-8.5,13.4s2.6,13.4,8.5,13.4c3.5,0,6.9-1.8,8.8-7.3Z" transform="translate(-352.52 -281.4)"/><path d="M985.89,699.11c4,0,6.1,1.8,8.4,4.5l-2.1,2.1c-2.1-2.8-4.1-3.9-6.4-3.9-7.9,0-10.2,11.5-10.2,22.6s2.3,22.7,10.2,22.7c2.3,0,4.3-1,6.4-3.9l2.1,2.1c-2.3,3.1-4.4,4.5-8.4,4.5-9.4,0-13.6-11.5-13.6-25.4S976.49,699.11,985.89,699.11Z" transform="translate(-352.52 -281.4)"/><path d="M1048.69,709.21c0-5.1-1.9-7.4-5.3-7.4-4.31,0-8.1,4.6-9.9,9.4v37.4h-3V681.9h3v25.61c2.2-4.6,6-8.4,10.3-8.4,5.5,0,7.9,2.8,7.9,10.1v39.4h-3Z" transform="translate(-352.52 -281.4)"/><path d="M1089.88,724.41c0-13.2,3.2-25.3,12.91-25.3s12.9,12.1,12.9,25.3-3.11,25.4-12.9,25.4S1089.88,737.61,1089.88,724.41Zm22.5,0c0-10.7-1.8-22.6-9.59-22.6s-9.61,11.9-9.61,22.6,1.9,22.7,9.61,22.7S1112.38,735.21,1112.38,724.41Z" transform="translate(-352.52 -281.4)"/></svg>