<?xml version="1.0" standalone="no"?>
<!DOCTYPE svg PUBLIC "-//W3C//DTD SVG 20010904//EN"
 "http://www.w3.org/TR/2001/REC-SVG-20010904/DTD/svg10.dtd">
<svg version="1.0" xmlns="http://www.w3.org/2000/svg"
 width="1516.000000pt" height="1516.000000pt" viewBox="0 0 1516.000000 1516.000000"
 preserveAspectRatio="xMidYMid meet">
<metadata>
Created by potrace 1.11, written by Peter Selinger 2001-2013
</metadata>
<g transform="translate(0.000000,1516.000000) scale(0.100000,-0.100000)"
fill="#000000" stroke="none">
<path d="M12868 11304 c-2 -2 -64 -6 -138 -10 -74 -3 -153 -7 -175 -9 -22 -2
-83 -6 -135 -10 -52 -4 -113 -8 -135 -10 -61 -4 -220 -22 -220 -25 0 0 -29 -3
-65 -6 -36 -3 -76 -7 -90 -9 -14 -2 -45 -6 -70 -9 -25 -3 -56 -8 -70 -11 -14
-3 -50 -8 -80 -11 -30 -3 -57 -7 -60 -9 -3 -2 -29 -6 -59 -10 -30 -4 -63 -9
-75 -11 -12 -3 -32 -7 -46 -10 -46 -8 -235 -46 -245 -48 -5 -2 -28 -6 -50 -10
-22 -5 -62 -14 -90 -22 -27 -7 -61 -15 -75 -18 -14 -3 -61 -14 -105 -26 -44
-12 -87 -23 -95 -25 -8 -2 -46 -13 -85 -25 -38 -11 -79 -22 -89 -25 -30 -7
-237 -76 -271 -90 -16 -7 -52 -20 -80 -30 -27 -10 -63 -23 -80 -31 -16 -7 -68
-29 -115 -48 -47 -19 -119 -51 -160 -71 -128 -61 -225 -110 -230 -115 -3 -3
-27 -16 -55 -30 -27 -14 -52 -28 -55 -31 -3 -3 -16 -12 -30 -19 -70 -36 -335
-216 -415 -281 -168 -138 -383 -345 -455 -439 -19 -25 -40 -49 -46 -55 -25
-23 -188 -252 -220 -310 -6 -11 -23 -40 -38 -65 -15 -25 -40 -72 -57 -105 -17
-33 -34 -67 -39 -75 -9 -16 -47 -98 -75 -165 -20 -48 -95 -261 -97 -275 0 -3
-5 -16 -10 -30 -5 -14 -11 -32 -13 -40 -2 -8 -8 -30 -14 -47 -5 -18 -8 -33 -5
-33 3 0 0 -8 -5 -17 -5 -10 -11 -31 -14 -48 -5 -26 -12 -59 -41 -200 -6 -34
-16 -98 -21 -145 -3 -25 -7 -61 -10 -80 -32 -206 -36 -623 -10 -890 4 -34 9
-77 20 -170 3 -25 8 -62 10 -82 3 -20 9 -56 14 -80 6 -24 12 -58 16 -75 28
-163 112 -439 190 -623 45 -108 151 -315 177 -347 6 -7 7 -13 2 -13 -5 0 -4
-4 1 -8 6 -4 26 -32 45 -62 19 -30 59 -89 90 -132 30 -42 62 -86 70 -98 8 -12
23 -32 33 -43 11 -12 35 -42 55 -67 49 -60 295 -305 356 -355 27 -22 54 -44
60 -50 6 -5 38 -30 71 -55 33 -25 62 -48 63 -52 2 -5 10 -8 18 -8 8 0 14 -4
14 -8 0 -4 15 -16 33 -27 17 -10 36 -24 40 -32 4 -7 13 -13 18 -13 6 0 36 -17
67 -38 181 -121 578 -327 717 -372 22 -7 45 -17 52 -22 6 -5 24 -13 40 -18 15
-5 66 -23 113 -40 47 -18 90 -33 95 -34 19 -5 50 -17 67 -27 10 -5 23 -9 30
-9 7 0 62 -16 121 -35 60 -19 119 -37 130 -40 12 -2 92 -23 177 -45 85 -23
168 -43 184 -45 15 -3 37 -7 48 -11 11 -3 30 -8 41 -10 12 -2 42 -7 67 -13 25
-5 61 -12 81 -15 20 -3 42 -7 50 -10 8 -3 33 -7 56 -10 22 -3 52 -8 65 -10 38
-9 81 -16 118 -21 19 -2 46 -6 60 -8 32 -7 116 -18 159 -23 19 -2 49 -6 67 -9
18 -2 59 -7 91 -10 32 -3 69 -7 83 -10 31 -5 138 -16 210 -20 30 -2 80 -6 110
-9 200 -21 467 -30 915 -30 387 -1 641 6 825 20 30 2 91 6 135 9 158 10 215
14 252 19 21 3 70 8 108 11 39 3 86 8 105 10 19 3 58 7 85 10 28 3 66 7 85 10
86 12 147 19 167 19 22 1 43 26 22 26 -6 0 -7 5 -4 10 4 6 8 173 11 370 l3
360 -27 -5 c-15 -2 -47 -7 -71 -10 -23 -3 -55 -7 -70 -9 -14 -3 -48 -8 -76
-11 -27 -4 -61 -8 -75 -10 -14 -2 -52 -6 -85 -9 -33 -4 -80 -9 -105 -12 -25
-3 -66 -7 -92 -7 -27 -1 -48 -4 -48 -7 0 -3 -17 -5 -38 -6 -35 -1 -157 -11
-247 -20 -22 -2 -83 -7 -135 -10 -52 -3 -120 -7 -150 -9 -390 -27 -1134 -22
-1510 10 -41 3 -100 8 -130 10 -30 2 -77 6 -105 10 -27 3 -68 8 -90 10 -22 2
-58 7 -80 10 -22 3 -62 7 -90 10 -27 2 -62 7 -77 10 -16 3 -40 7 -55 9 -16 2
-44 6 -63 10 -19 3 -48 7 -65 10 -40 5 -121 19 -182 31 -16 3 -38 8 -51 10
-12 2 -30 6 -40 9 -9 3 -33 7 -52 10 -19 2 -64 12 -100 21 -36 9 -72 18 -80
20 -136 30 -463 126 -555 164 -11 5 -69 28 -130 51 -590 230 -1048 561 -1358
983 -29 40 -64 90 -77 112 -13 22 -26 42 -29 45 -7 6 -21 31 -67 118 -19 37
-39 74 -44 82 -35 58 -146 357 -164 440 -3 14 -10 43 -16 65 -12 46 -40 185
-45 224 -2 14 -6 46 -10 71 -8 49 -12 98 -20 200 -6 76 -6 409 -1 460 2 19 7
69 10 110 4 41 8 84 10 95 2 11 8 45 12 75 4 30 9 57 9 60 1 3 5 23 9 45 43
222 114 431 217 640 28 55 59 114 69 130 11 17 23 37 27 45 8 19 56 90 105
157 21 29 39 56 40 60 2 5 15 20 30 35 15 15 28 30 28 34 0 20 245 261 355
349 28 22 52 42 55 45 3 3 21 17 40 30 19 13 37 27 40 30 3 3 41 29 85 58 44
28 85 55 91 59 13 10 52 33 89 52 16 9 32 19 35 22 10 13 289 149 415 202 177
74 540 198 620 211 6 1 16 5 23 9 6 5 12 6 12 3 0 -2 15 0 33 5 17 6 39 12 47
14 8 2 47 11 85 20 39 9 115 25 170 36 55 12 109 23 120 25 55 11 204 37 235
40 19 2 46 6 60 9 40 9 71 13 130 19 30 4 66 8 80 10 14 2 52 7 85 10 33 4 71
8 85 10 14 3 63 8 110 12 47 3 101 8 120 10 19 1 79 5 133 8 54 3 102 8 108
11 5 4 9 2 9 -4 0 -7 8 -7 23 -2 30 11 204 15 622 15 428 -1 742 -13 1015 -39
25 -3 81 -7 125 -10 44 -3 94 -7 110 -9 63 -8 152 -18 195 -22 69 -7 122 -13
155 -18 17 -2 53 -7 82 -10 29 -4 73 -10 98 -15 l45 -8 -5 350 c-2 192 -6 351
-7 352 -2 2 -27 6 -57 9 -30 4 -64 9 -75 11 -12 2 -50 7 -86 10 -36 4 -78 8
-95 11 -33 4 -98 11 -190 19 -33 3 -80 8 -105 10 -69 7 -168 15 -235 20 -33 2
-107 7 -165 11 -58 4 -138 7 -177 8 -40 1 -73 5 -73 9 0 4 -9 3 -19 -3 -11 -5
-22 -6 -25 -2 -5 8 -971 14 -978 6z"/>
<path d="M3537 11174 c-1 -2 -41 -5 -87 -8 -187 -12 -350 -33 -460 -57 -25 -6
-56 -12 -70 -14 -84 -14 -326 -81 -394 -109 -20 -8 -40 -16 -44 -17 -4 -1 -17
-5 -30 -10 -13 -5 -29 -9 -37 -9 -8 0 -17 -4 -20 -10 -3 -5 -12 -10 -19 -10
-7 0 -44 -14 -82 -32 -38 -17 -71 -32 -74 -33 -12 -3 -182 -91 -245 -128 -109
-64 -319 -210 -359 -249 -7 -7 -25 -22 -41 -33 -64 -46 -242 -219 -337 -327
-82 -93 -89 -102 -146 -178 -32 -41 -60 -76 -64 -78 -5 -2 -8 -10 -8 -17 0 -7
-4 -15 -8 -17 -20 -8 -191 -279 -262 -414 -22 -43 -44 -82 -49 -88 -10 -14
-151 -321 -151 -330 0 -3 -9 -28 -21 -54 -45 -102 -51 -118 -55 -132 -4 -16
-83 -245 -85 -245 0 0 -2 -7 -4 -15 -2 -8 -18 -60 -35 -115 -17 -55 -33 -107
-35 -115 -2 -8 -19 -75 -39 -147 -19 -73 -32 -133 -29 -133 3 0 -1 -7 -8 -17
-8 -9 -12 -18 -11 -20 3 -2 -6 -63 -13 -93 -2 -8 -25 -113 -31 -140 -8 -40
-35 -183 -39 -210 -2 -14 -6 -38 -9 -55 -3 -16 -8 -50 -11 -75 -3 -25 -10 -70
-15 -100 -6 -30 -13 -77 -16 -105 -3 -27 -7 -63 -9 -80 -2 -16 -7 -55 -10 -85
-4 -30 -8 -71 -11 -90 -8 -59 -13 -112 -19 -195 -3 -44 -7 -96 -9 -115 -5 -43
-15 -187 -23 -340 -8 -147 -8 -1063 0 -1195 4 -55 9 -149 12 -210 3 -60 7
-136 10 -167 6 -72 14 -155 20 -233 3 -33 8 -85 10 -115 5 -56 12 -121 21
-175 2 -16 6 -52 8 -80 4 -45 7 -72 21 -155 2 -14 4 -28 4 -31 1 -3 13 -5 29
-5 15 1 35 -2 44 -7 10 -4 18 -4 18 0 0 4 14 8 30 8 17 0 30 -3 30 -6 0 -4 16
-3 34 1 19 4 37 5 40 2 3 -3 125 -6 271 -7 l264 -2 -5 36 c-6 48 -12 89 -19
131 -4 19 -8 53 -10 75 -2 22 -6 49 -8 60 -3 11 -8 54 -12 95 -4 41 -9 89 -11
105 -7 62 -15 142 -18 190 -8 91 -16 189 -21 230 -2 22 -7 87 -10 145 -4 58
-8 128 -10 155 -10 138 -18 482 -17 745 1 411 13 646 48 1000 4 41 7 85 8 98
0 12 2 22 5 22 4 0 6 17 7 38 1 43 11 147 18 178 2 12 7 39 10 60 30 186 41
258 51 304 3 14 8 39 11 55 2 17 9 46 13 65 5 19 9 42 9 50 0 8 19 87 42 175
23 88 43 169 46 180 7 26 10 37 16 55 3 8 20 62 38 120 17 58 36 116 42 130 7
14 12 27 13 30 14 50 40 121 78 210 6 14 11 27 12 30 21 63 166 349 229 454
36 60 66 113 66 117 0 4 3 9 8 11 4 2 27 32 51 68 25 36 48 67 53 68 4 2 8 10
8 17 0 7 3 15 8 17 4 2 25 26 47 53 22 28 51 64 65 80 34 41 259 266 291 290
195 150 286 209 444 289 127 65 145 73 240 107 33 12 67 24 75 27 8 3 18 6 23
7 4 2 8 3 10 5 1 1 9 3 17 5 8 3 47 14 85 25 163 48 345 79 550 96 107 9 453
9 545 0 119 -12 211 -24 270 -36 25 -5 59 -11 75 -14 87 -12 325 -82 458 -135
179 -72 499 -253 515 -293 2 -4 8 -8 14 -8 9 0 55 -35 142 -110 114 -98 272
-269 374 -405 29 -39 56 -75 61 -81 15 -19 118 -178 142 -220 54 -93 111 -200
113 -210 1 -6 9 -23 19 -37 9 -15 17 -28 17 -31 0 -2 16 -38 35 -79 19 -41 54
-126 78 -189 24 -62 48 -122 52 -133 4 -11 9 -24 11 -30 1 -5 12 -37 24 -70
24 -69 40 -121 45 -151 1 -12 7 -30 13 -40 8 -16 41 -133 59 -208 2 -11 8 -37
13 -56 5 -19 11 -44 13 -55 13 -51 28 -119 33 -152 3 -20 9 -46 14 -57 4 -12
8 -25 9 -31 1 -18 13 -99 17 -120 3 -11 7 -35 10 -54 3 -18 8 -43 10 -55 2
-11 6 -39 9 -61 3 -22 7 -51 10 -65 9 -46 15 -85 20 -130 2 -25 7 -67 10 -95
21 -170 41 -385 50 -535 25 -416 25 -1028 0 -1435 -9 -152 -14 -217 -30 -410
-3 -33 -7 -82 -10 -110 -6 -75 -14 -156 -20 -195 -2 -19 -7 -62 -10 -96 -3
-34 -14 -116 -24 -183 -10 -67 -15 -123 -12 -125 11 -6 489 2 500 8 5 4 12 2
16 -3 3 -6 15 -7 28 -2 12 5 32 5 44 0 12 -4 25 -4 27 0 3 5 21 7 40 4 38 -4
41 0 50 77 4 25 8 56 10 70 3 14 8 52 11 85 4 33 8 74 10 90 2 17 7 59 10 95
3 36 7 81 10 99 2 19 7 71 10 115 3 45 8 97 10 116 3 19 7 82 11 140 3 58 8
125 9 150 13 191 19 442 19 775 0 339 -4 484 -19 760 -8 135 -32 422 -40 475
-5 31 -14 108 -20 175 -2 28 -7 61 -10 75 -3 14 -7 43 -10 65 -2 22 -6 51 -9
64 -3 14 -8 45 -11 70 -3 25 -10 73 -15 106 -6 33 -13 76 -16 95 -3 19 -8 42
-10 50 -3 8 -8 33 -10 55 -3 22 -7 47 -10 55 -3 8 -8 26 -10 40 -2 14 -9 46
-15 71 -6 26 -12 53 -13 60 -2 8 -6 25 -9 39 -21 88 -40 168 -44 189 -2 14 -6
28 -9 33 -3 4 -7 18 -10 30 -9 38 -12 53 -14 56 -2 1 -4 7 -5 12 -1 6 -4 12
-5 15 -1 3 -3 13 -5 23 -1 9 -4 24 -8 32 -3 8 -29 89 -58 180 -29 91 -56 172
-60 180 -4 8 -30 75 -58 148 -59 152 -90 221 -171 382 -84 169 -98 194 -175
318 -39 62 -74 121 -80 132 -5 11 -13 20 -17 20 -5 0 -8 7 -8 15 0 8 -4 15 -8
15 -4 0 -15 12 -24 28 -9 15 -24 36 -32 47 -61 80 -119 153 -133 171 -71 82
-158 176 -216 233 -39 36 -87 83 -107 104 -21 20 -43 37 -49 37 -7 0 -9 5 -6
10 3 6 0 10 -9 10 -8 0 -16 3 -18 8 -2 6 -93 78 -143 114 -5 4 -23 18 -40 31
-16 12 -61 43 -100 67 -38 25 -73 49 -77 55 -5 6 -8 6 -8 0 0 -7 -3 -7 -8 0
-7 10 -26 21 -137 79 -33 17 -63 35 -67 41 -4 5 -8 7 -8 3 0 -4 -21 4 -48 17
-40 20 -92 43 -112 50 -3 1 -18 7 -35 14 -105 45 -360 127 -448 145 -55 12
-75 16 -117 26 -25 5 -58 12 -75 14 -16 2 -30 5 -30 6 0 1 -9 3 -20 4 -85 11
-142 18 -155 21 -18 4 -122 15 -193 21 -55 5 -546 12 -550 8z"/>
</g>
</svg>
